<svg width="1037" height="950" viewBox="0 0 1037 950" fill="none" xmlns="http://www.w3.org/2000/svg">
  <path fill-rule="evenodd" clip-rule="evenodd" d="M134.347 1.92669C116.479 6.61069 102.62 18.4757 94.03 36.4417C87.02 51.1027 87.5 34.9927 87.5 255.442V455.442L89.758 463.233C93.485 476.092 98.324 484.503 106.885 493.005C115.144 501.207 120.663 504.739 131.5 508.757L138.5 511.353L185 511.897C225.389 512.37 231.748 512.245 233.385 510.942C234.422 510.117 242.955 500.667 252.347 489.942C283.541 454.322 319.516 419.241 353.5 391.303C383.655 366.513 428.601 335.42 454.5 321.432C458.35 319.353 461.95 317.306 462.5 316.884C464.706 315.191 497.497 297.923 498.946 297.691C500.339 297.468 500.5 304.689 500.5 367.442C500.5 422.076 500.217 438.241 499.209 441.081C497.606 445.6 492.219 451.247 486.694 454.2L482.5 456.442L395.167 456.942L307.834 457.442L298.399 467.442C286.35 480.213 258.578 510.87 258.25 511.762C258.112 512.136 312.787 512.217 379.75 511.942L501.5 511.442L509.278 508.69C530.424 501.207 546.242 484.122 551.634 462.942C553.116 457.123 553.287 446.816 553.269 364.603L553.249 272.764L557.374 270.996C578.536 261.925 617.982 248.124 644.743 240.428C696.411 225.569 754.659 215.439 811.265 211.469C856.793 208.275 921.739 210.345 968.5 216.481C971.162 216.83 966.981 214.709 956 210.139C903.07 188.109 868.462 170.001 828.276 143.311L807 129.18V158.44V187.7L778.75 187.73C665.479 187.85 554.198 209.993 448.5 253.443C426.945 262.304 424.107 263.571 396.5 276.668C310.411 317.508 223.057 377.31 156.909 440.692C151.265 446.101 146.419 449.942 145.242 449.942C143.932 449.942 142.66 448.745 141.604 446.519C140.12 443.392 140.002 427.077 140.24 257.769L140.5 72.4417L142.678 68.3737C143.875 66.1357 146.678 62.6587 148.905 60.6467C156.938 53.3897 142.859 53.9417 319.756 53.9417C439.122 53.9417 480.256 54.2377 483.193 55.1177C488.841 56.8097 495.314 62.9337 498.03 69.1537L500.338 74.4417L500.522 142.712C500.623 180.26 500.899 211.174 501.134 211.409C501.369 211.644 505.373 210.677 510.031 209.26C518.671 206.632 550.856 198.038 552.292 197.976C552.728 197.957 552.942 164.755 552.767 124.192C552.472 55.8007 552.316 50.0417 550.613 44.9417C544.787 27.4907 532.331 12.7937 517.412 5.77072C504.502 -0.307281 514.118 -0.0273004 319.5 0.0136996C148.728 0.0506996 141.21 0.127694 134.347 1.92669ZM643 603.878C631.872 606.124 626.55 613.364 627.159 625.429C627.727 636.662 633.062 642.817 644.167 645.047C654.607 647.143 665.398 641.723 668.65 632.749C669.309 630.93 669.882 626.803 669.924 623.578C670.059 613.196 663.887 606.007 653.082 603.958C650.137 603.399 647.451 602.994 647.114 603.057C646.776 603.12 644.925 603.49 643 603.878ZM886 717.466V825.989L903.121 825.716L920.242 825.442L920.475 804.104L920.708 782.766L932.088 771.354C938.347 765.077 943.722 759.942 944.033 759.942C944.596 759.942 953.23 771.491 979.102 806.851L992.704 825.442L1014.45 825.712L1036.2 825.982L1032.77 821.212C1024.91 810.282 992.762 766.332 982.231 752.114C975.986 743.683 970.635 736.155 970.34 735.385C969.824 734.042 976.946 725.893 1000 701.448C1005.22 695.908 1014.16 686.327 1019.86 680.158L1030.22 668.942H1009.23H988.246L954.457 703.942C935.874 723.192 920.585 738.942 920.482 738.942C920.379 738.942 920.323 720.155 920.356 697.192C920.39 674.23 920.324 644.98 920.209 632.192L920 608.942H903H886V717.466ZM84.895 629.67C80.454 639.327 68.242 667.247 48.037 713.942C25.988 764.895 19.175 780.532 9.38599 802.652C4.22399 814.318 0 824.33 0 824.902C0 825.585 6.48001 825.942 18.89 825.942H37.78L42.322 814.692C52.613 789.2 56.326 780.377 57.26 779.192C58.024 778.222 69.219 777.942 107.154 777.942C152.83 777.942 156.104 778.058 156.684 779.692C158.454 784.678 175.376 823.621 176.239 824.692C176.98 825.613 182.245 825.942 196.229 825.942C211.016 825.942 215.104 825.666 214.717 824.692C213.694 822.123 203.782 799.275 201.846 795.026C200.739 792.597 195.997 781.797 191.307 771.026C179.291 743.43 152.416 681.982 142.503 659.442C137.908 648.992 132.387 636.167 130.234 630.942L126.321 621.442L107.625 621.17L88.929 620.898L84.895 629.67ZM468 723.61V825.942H536.5H605V809.442V792.942H554.506H504.011L503.756 707.192L503.5 621.442L485.75 621.36L468 621.279V723.61ZM357 650.442V668.942L353.25 669.039C351.188 669.092 345.551 669.054 340.724 668.955L331.947 668.774L332.224 684.108L332.5 699.442L344.5 699.482L356.5 699.523L357.033 744.982C357.541 788.276 357.671 790.752 359.747 796.942C365.508 814.111 376.968 824.068 394.347 827.002C408.847 829.449 428.764 826.124 436.054 820.038L439.252 817.368L435.495 804.405C433.429 797.275 431.635 791.317 431.508 791.164C431.381 791.011 428.852 792.132 425.888 793.655C421.241 796.044 419.32 796.426 411.925 796.433C404.068 796.441 403.044 796.208 399.674 793.64C395.498 790.458 393.595 787.21 392.526 781.442C391.722 777.098 391.773 700.836 392.581 700.028C392.852 699.757 401.607 699.514 412.036 699.488L430.999 699.442L431 684.442L431.001 669.442L411.501 669.769L392 670.097V651.019V631.942H374.5H357V650.442ZM113.175 675.199C116.297 683.033 120.85 694.167 123.295 699.942C125.739 705.717 130.882 717.867 134.724 726.942C138.566 736.017 142.03 744.455 142.422 745.692L143.135 747.942H107.067C87.23 747.942 70.996 747.604 70.991 747.192C70.975 745.792 106.311 660.942 106.907 660.949C107.233 660.953 110.054 667.366 113.175 675.199ZM301 668.502C290.314 670.805 281.027 676.014 274.07 683.606L268 690.231V679.587V668.942H251.5H235L234.978 682.192C234.966 689.48 234.854 724.692 234.728 760.442L234.5 825.442H252H269.5L270.055 779.942C270.545 739.762 270.821 733.799 272.414 728.942C275.032 720.958 276.67 718.171 282.153 712.374C289.488 704.618 296.789 701.642 309.75 701.124C319.39 700.74 320.005 700.588 320.087 698.579C320.228 695.11 320.239 687.105 320.115 676.692L320 666.942L313.75 667.021C310.313 667.065 304.575 667.731 301 668.502ZM774 667.633C763.456 669.398 751.21 675.614 743.286 683.223L737 689.259V679.101V668.942H720.5H704V747.442V825.942H721.5H739L739.017 781.692C739.031 747.547 739.356 735.928 740.44 730.811C744.006 713.988 754.014 703.719 770.141 700.336C782.479 697.748 793.777 700.418 802.355 707.948C807.07 712.089 809.311 716.483 811.377 725.639C812.748 731.72 813 740.058 813 779.389V825.942H830.5H848L847.992 775.192C847.983 713.944 847.473 709.467 838.817 694.637C828.065 676.216 809.999 666.795 786 667.096C780.775 667.161 775.375 667.403 774 667.633ZM631.244 747.192L631.5 825.442L648.75 825.716L666 825.989V747.466V668.942H648.494H630.988L631.244 747.192ZM2.685 890.59C2.308 890.967 2 893.225 2 895.609V899.942H11H20V924.442V948.942H25H30V924.442V899.942L37.25 899.794C41.237 899.713 45.4 899.6 46.5 899.544C48.189 899.458 48.5 898.741 48.5 894.942V890.442L25.935 890.174C13.524 890.026 3.062 890.214 2.685 890.59ZM56 919.387V948.942H61H66V936.442V923.942H80H94V936.442V948.942H99H104V919.532V890.122L99.25 890.335L94.5 890.548L94.219 902.745L93.938 914.942H80H66.062L65.781 902.692L65.5 890.442L60.75 890.137L56 889.832V919.387ZM118.571 890.704C118.257 891.018 118 904.25 118 920.109V948.942H138.555H159.11L158.805 944.192L158.5 939.442H143.5H128.5V931.942V924.442L141.25 924.162L154 923.882V919.412V914.942H141H128V907.442V899.942L133.25 899.848C136.138 899.796 142.662 899.833 147.75 899.929L157 900.105V895.043V889.981L138.071 890.057C127.661 890.099 118.886 890.39 118.571 890.704ZM191.447 890.829C191.201 891.074 191 904.25 191 920.109V948.942L207.75 948.936C216.963 948.933 226.279 948.437 228.453 947.833C240.317 944.54 243.71 929.162 234.38 920.971C231.339 918.301 231.012 917.635 232.248 916.63C237.474 912.377 238.626 903.679 234.737 897.84C230.644 891.696 226.863 890.647 208.293 890.506C199.273 890.438 191.692 890.583 191.447 890.829ZM250 919.313V948.942H255H260V940.442V931.942H267.423H274.845L280.058 940.442L285.27 948.942H291.08H296.89L290.498 939.249L284.107 929.555L286.915 927.848C288.459 926.908 290.798 924.633 292.111 922.791C294.184 919.886 294.5 918.306 294.5 910.864C294.5 902.945 294.278 901.995 291.608 898.495C286.999 892.452 282.653 891.112 265.185 890.348L250 889.684V919.313ZM306.841 890.641C306.653 891.082 306.626 904.38 306.78 920.192L307.06 948.942H312.045H317.03L316.765 919.692L316.5 890.442L311.841 890.141C309.278 889.975 307.028 890.2 306.841 890.641ZM331 919.413V949.148L347.25 948.713C365.066 948.238 368.036 947.483 374.527 941.784C376.508 940.045 379.315 936.332 380.766 933.532C382.995 929.232 383.411 927.122 383.447 919.942C383.5 909.657 381.997 904.979 376.845 899.389C370.309 892.299 365.112 890.704 346.75 890.152L331 889.678V919.413ZM408.627 891.41C395.853 895.964 388.37 910.316 391.026 925.174C393.749 940.411 404.085 949.053 419.586 949.053C428.187 949.053 433.071 947.762 437.782 944.243L441.064 941.791L440.782 930.617C440.532 920.692 440.304 919.456 438.75 919.567C437.787 919.636 435.65 919.748 434 919.817L431 919.942V928.493V937.044L427.532 938.493C418.795 942.144 408.666 938.784 403.563 930.544C395.876 918.133 403.177 901.069 416.965 899.22C422.443 898.485 427.169 899.567 431.593 902.569L435.387 905.144L438.122 901.793C440.625 898.726 440.724 898.295 439.294 896.714C438.434 895.764 435.453 893.851 432.669 892.464C428.563 890.418 426.182 889.95 420.054 889.986C415.899 890.01 410.757 890.651 408.627 891.41ZM453.571 890.704C453.257 891.018 453 904.25 453 920.109V948.942H473.555H494.11L493.805 944.192L493.5 939.442L479.5 939.153C471.8 938.994 464.924 938.665 464.22 938.423C463.367 938.129 463.093 936.723 463.399 934.212C463.651 932.138 463.89 928.979 463.929 927.192L464 923.942H477H490V919.442V914.942H477H464L464.001 907.192V899.442H478.251H492.5V894.942V890.442L473.321 890.288C462.772 890.203 453.885 890.39 453.571 890.704ZM520.405 891.328C520.105 892.111 520.003 894.23 520.18 896.038L520.5 899.324L529 899.383L537.5 899.442L537.767 924.192L538.035 948.942H543.517H549V924.481V900.02L557.75 899.731L566.5 899.442V894.942V890.442L543.726 890.173C524.77 889.949 520.86 890.143 520.405 891.328ZM588 891.187C582.475 893.011 573.65 902.468 571.537 908.831C569.294 915.583 569.809 926.488 572.676 932.953C580.453 950.492 605.175 954.902 619.188 941.25C629.94 930.775 630.445 909.394 620.196 898.603C614.599 892.709 609.407 890.564 600.07 890.286C595.356 890.146 589.925 890.552 588 891.187ZM659.667 890.609C659.3 890.975 659 904.25 659 920.109V948.942H664.5H670V929.381V909.821L679.134 922.131C700.247 950.586 698.743 948.942 703.654 948.942H708.03L707.765 919.692L707.5 890.442L702.75 890.137L698 889.832V909.387C698 920.142 697.662 928.917 697.25 928.886C696.838 928.855 690.931 921.251 684.124 911.99C668.509 890.742 667.765 889.942 663.626 889.942C661.815 889.942 660.033 890.242 659.667 890.609ZM722 919.42V948.942H742.469H762.938L762.564 944.192L762.189 939.442H747.345H732.5L732.208 931.721L731.917 924.001L745.208 923.721L758.5 923.442L758.408 919.442L758.315 915.442L745.116 915.163L731.917 914.883L732.208 907.163L732.5 899.442L746.8 899.583L761.101 899.725L760.8 895.083L760.5 890.442L741.25 890.17L722 889.899V919.42ZM767 890.736C767 891.173 770.993 904.336 775.874 919.986L784.748 948.442H790.092H795.437L800.641 931.942C803.504 922.867 806.351 913.475 806.968 911.07C807.585 908.666 808.302 906.911 808.562 907.17C808.821 907.43 810.622 913.222 812.565 920.042C814.507 926.862 817.233 936.176 818.623 940.74L821.15 949.037L826.776 948.74L832.402 948.442L841.166 920.442C845.987 905.042 849.946 891.88 849.965 891.192C849.989 890.356 848.366 889.942 845.071 889.942H840.142L838.506 895.692C837.606 898.854 835.352 906.392 833.497 912.442C831.641 918.492 829.569 925.467 828.893 927.942C827.043 934.709 826.291 934.774 824.493 928.325C823.591 925.089 821.788 919.067 820.486 914.942C823.591 925.089 821.788 919.067 820.486 914.942C819.184 910.817 817.145 904.067 815.955 899.942C814.765 895.817 813.333 891.88 812.773 891.192C812.213 890.505 810.025 889.942 807.91 889.942H804.064L801.447 898.692C800.007 903.505 797.561 911.492 796.01 916.442C794.459 921.392 792.668 927.4 792.029 929.793C791.391 932.186 790.664 933.939 790.413 933.688C790.163 933.438 787.277 923.915 784.001 912.528C780.725 901.14 777.783 891.399 777.463 890.882C776.761 889.746 767 889.61 767 890.736ZM896.086 892.192C894.586 896.093 877.325 937.175 874.637 943.241L872.067 949.04L877.716 948.741L883.365 948.442L886.008 941.942L886.008 941.942L886.008 941.942L888.65 935.442L899.575 935.427C915.845 935.406 915.107 935.132 918.008 942.27L920.515 948.442L925.758 948.744C928.706 948.914 931 948.619 931 948.071C931 947.534 928.799 941.998 926.11 935.768C921.057 924.065 915.597 911.139 910.025 897.692L906.813 889.942H901.882C897.691 889.942 896.821 890.28 896.086 892.192ZM937.597 890.942C937.481 891.217 937.257 904.38 937.099 920.192L936.811 948.942H942.405H948V940.442V931.942H955.286H962.572L967.536 940.424L972.5 948.906L978.25 948.924C981.412 948.934 984 948.695 984 948.394C984 948.093 981.303 943.807 978.006 938.871L972.013 929.896L976.402 925.669C986.694 915.757 984.504 899.321 972.044 892.964C968.994 891.408 965.642 891.019 953.073 890.758C944.677 890.584 937.712 890.667 937.597 890.942ZM987 894.774V899.442L995.75 899.448L1004.5 899.453L1004.66 922.448C1004.74 935.094 1004.86 946.229 1004.91 947.192C1004.98 948.612 1005.94 948.942H1009.98H1014.96L1015.23 924.192L1015.5 899.442L1024 899.309L1032.5 899.176V894.809V890.442L1009.75 890.274L987 890.106V894.774ZM222.497 900.376C226.217 901.93 227.669 905.139 226.594 909.424C225.595 913.404 221.262 914.942 211.05 914.942H202V906.942V898.942H210.532C215.68 898.942 220.426 899.511 222.497 900.376ZM280.096 901.266C283.238 903.329 285.005 906.933 284.985 911.239C284.948 919.351 279.664 922.938 267.75 922.94L260 922.942V911.609C260 905.375 260.338 899.929 260.75 899.506C262.147 898.073 277.337 899.455 280.096 901.266ZM363.664 901.268C377.146 908.24 377.161 930.273 363.688 937.233C360.78 938.736 357.698 939.231 350.688 939.322L341.5 939.442V919.942C341.5 908.147 341.895 900.123 342.5 899.635C344.181 898.279 360.287 899.522 363.664 901.268ZM605.685 900.009C612.744 902.683 617.01 909.915 616.978 919.152C616.928 933.453 607.542 941.955 594.504 939.509C587.062 938.113 579.99 928.359 580.006 919.514C580.02 911.819 584.86 903.796 591.5 900.461C595.004 898.701 601.673 898.488 605.685 900.009ZM967.999 901.834C971.155 904.135 973.451 910.011 972.568 913.527C972.199 914.996 970.605 917.491 969.026 919.07C966.285 921.811 965.739 921.942 957.077 921.942H948V911.109C948 905.15 948.225 900.05 948.5 899.775C948.776 899.5 952.713 899.44 957.25 899.643C963.208 899.909 966.194 900.518 967.999 901.834ZM906.805 913.708C909.173 919.612 911.359 925.005 911.662 925.692C912.084 926.646 909.799 926.942 902 926.942C894.061 926.942 891.896 926.654 892.282 925.65C896.603 914.39 901.463 902.945 901.918 902.958C902.238 902.967 904.437 907.804 906.805 913.708ZM226.221 925.167C231.491 928.621 230.418 936.692 224.383 938.987C222.256 939.795 202.061 940.431 201.969 939.692C201.242 933.86 200.936 925.552 201.402 924.337C202.301 921.993 222.403 922.666 226.221 925.167Z" fill="#00CFBB"/>
</svg>
